<svg width="20" height="20" viewBox="0 0 20 20" fill="none" xmlns="http://www.w3.org/2000/svg">
<path d="M10.0001 1.66666C5.40008 1.66666 1.66675 5.4 1.66675 10C1.66675 14.6 5.40008 18.3333 10.0001 18.3333C14.6001 18.3333 18.3334 14.6 18.3334 10C18.3334 5.4 14.6001 1.66666 10.0001 1.66666ZM10.0001 5C11.6084 5 12.9167 6.30833 12.9167 7.91666C12.9167 9.525 11.6084 10.8333 10.0001 10.8333C8.39175 10.8333 7.08341 9.525 7.08341 7.91666C7.08341 6.30833 8.39175 5 10.0001 5ZM10.0001 16.6667C8.30841 16.6667 6.30841 15.9833 4.88341 14.2667C6.34309 13.1214 8.14476 12.499 10.0001 12.499C11.8554 12.499 13.6571 13.1214 15.1167 14.2667C13.6917 15.9833 11.6917 16.6667 10.0001 16.6667Z" fill="#2E4A62"/>
</svg>
