<svg width="20" height="20" viewBox="0 0 20 20" fill="none" xmlns="http://www.w3.org/2000/svg">
<g clip-path="url(#clip0_37_1639)">
<path d="M9.4874 12.7292C10.4132 12.7258 12.4374 12.7183 12.4141 11.4308C12.3916 10.1142 10.4474 10.1933 9.4999 10.2325C9.39406 10.2367 9.2999 10.2408 9.22323 10.2417L9.26656 12.7308C9.32906 12.7292 9.40406 12.7292 9.4874 12.7292ZM9.38906 9.10166C10.1616 9.10082 11.8474 9.09916 11.8274 7.92832C11.8057 6.73082 10.1866 6.80166 9.39573 6.83666C9.30656 6.84082 9.22906 6.84416 9.16406 6.84499L9.20323 9.10249L9.38906 9.10166Z" fill="#2E4A62"/>
<path fill-rule="evenodd" clip-rule="evenodd" d="M7.58006 19.7009C12.9384 21.0367 18.3651 17.7759 19.7009 12.4192C21.0367 7.06174 17.7751 1.63508 12.4167 0.300076C7.06172 -1.03659 1.63506 2.22508 0.300056 7.58341C-1.03578 12.9401 2.22506 18.3667 7.58089 19.7017L7.58006 19.7009ZM11.1484 5.51758C12.6101 5.62091 13.7734 6.04924 13.9259 7.38591C14.0392 8.36424 13.6392 8.96008 12.9901 9.30508C14.0734 9.54508 14.7609 10.1742 14.6526 11.6142C14.5184 13.4017 13.1959 13.9042 11.2976 14.0459L11.3292 15.9209L10.1992 15.9417L10.1667 14.0917C9.87422 14.0967 9.57422 14.1001 9.26339 14.0984L9.29672 15.9567L8.16672 15.9767L8.13339 14.0984L7.81422 14.1009C7.65256 14.1017 7.48922 14.1026 7.32589 14.1059L5.85422 14.1309L6.05506 12.7776C6.05506 12.7776 6.89172 12.7759 6.87672 12.7634C7.19672 12.7567 7.27756 12.5259 7.29506 12.3809L7.24422 9.41674L7.32506 9.41508H7.36339C7.32356 9.41051 7.28347 9.40856 7.24339 9.40924L7.20672 7.29258C7.15922 7.06424 7.00589 6.80091 6.54839 6.80924C6.56089 6.79258 5.72672 6.82341 5.72672 6.82341L5.70506 5.61674L7.26506 5.59008V5.59591C7.49922 5.59174 7.74006 5.58341 7.98422 5.57424L7.95256 3.71674L9.08256 3.69758L9.11422 5.51758C9.41589 5.50674 9.71922 5.49508 10.0167 5.49008L9.98506 3.68174L11.1159 3.66174L11.1484 5.51924V5.51758Z" fill="#2E4A62"/>
</g>
<defs>
<clipPath id="clip0_37_1639">
<rect width="20" height="20" fill="white"/>
</clipPath>
</defs>
</svg>
