<svg width="20" height="20" viewBox="0 0 20 20" fill="none" xmlns="http://www.w3.org/2000/svg">
<path d="M11.9 8.4C13.2 8.4 14 6.5 14 5.3C14 4.3 13.5 3.1 12.5 3.1C11.2 3.1 10.4 5 10.4 6.2C10.4 7.2 10.9 8.4 11.9 8.4ZM8.10005 8.4C9.10005 8.4 9.60005 7.2 9.60005 6.2C9.60005 4.9 8.80005 3 7.50005 3C6.50005 3 6.00005 4.2 6.00005 5.2C5.90005 6.5 6.70005 8.4 8.10005 8.4ZM15.5 7.4C14.2 7.4 13.3 9.2 13.3 10.5C13.3 11.4 13.7 12.3 14.6 12.3C15.9 12.3 16.8 10.5 16.8 9.2C16.8 8.3 16.3 7.4 15.5 7.4ZM6.80005 10.5C6.80005 9.2 5.80005 7.4 4.60005 7.4C3.70005 7.4 3.30005 8.3 3.30005 9.2C3.30005 10.5 4.30005 12.3 5.50005 12.3C6.40005 12.3 6.80005 11.4 6.80005 10.5ZM10 10.3C8.00005 10.3 5.30005 13.5 5.30005 15.7C5.30005 16.7 6.00005 17 6.80005 17C8.00005 17 8.90005 16.2 10 16.2C11 16.2 11.9 17 13 17C13.8 17 14.7 16.8 14.7 15.7C14.7 13.5 12 10.3 10 10.3Z" fill="#3EB489"/>
</svg>
